<?xml version="1.0" encoding="utf-8"?>
<!-- Generator: Adobe Illustrator 21.0.0, SVG Export Plug-In . SVG Version: 6.00 Build 0)  -->
<svg version="1.1" id="Layer_1" xmlns="http://www.w3.org/2000/svg" xmlns:xlink="http://www.w3.org/1999/xlink" x="0px" y="0px"
	 viewBox="0 0 843.2 519.2" style="enable-background:new 0 0 843.2 519.2;" xml:space="preserve">
<style type="text/css">
	.st0{fill:#D00F3F;}
	.st1{fill:#FFFFFF;}
	.st2{fill:url(#SVGID_1_);}
</style>
<title>Asset 1</title>
<circle class="st0" cx="389.8" cy="259.6" r="259.6"/>
<rect x="236.3" y="201.8" class="st0" width="307" height="138.8"/>
<g>
	<polygon class="st1" points="464,288 493.8,337.6 543.3,307.8 	"/>
	<polygon class="st1" points="265.4,337.6 265.4,315.9 278.5,315.9 278.5,318.1 267.8,318.1 267.8,324.9 274,324.9 274,327.1 
		267.8,327.1 267.8,335.4 279,335.4 279,337.6 	"/>
	<path class="st1" d="M290.7,337.6v-2c-1.2,1.4-3,2.3-4.9,2.3c-3.2,0-5.8-2.5-5.8-8.2s2.7-8.7,6.1-8.7c1.8,0,3.5,0.8,4.6,2.2v-6.9
		l2.3-1.3v22.6L290.7,337.6z M290.7,325.5c-1-1.5-2.6-2.4-4.4-2.4c-2.7,0-4,2.3-4,6.7c0,4.1,1.5,6.2,4.1,6.2c1.7,0,3.2-0.9,4.3-2.3
		L290.7,325.5z"/>
	<path class="st1" d="M297.8,318.4c-0.9,0-1.7-0.7-1.7-1.6c0-0.9,0.7-1.7,1.6-1.7c0.9,0,1.7,0.7,1.7,1.6c0,0,0,0,0,0.1
		C299.4,317.7,298.7,318.4,297.8,318.4 M296.6,321.3h2.3v16.2h-2.3V321.3z"/>
	<path class="st1" d="M312.7,337.6v-9.5c0-3.5-1.2-5.1-3.8-5.1c-2.3,0-4,1.5-4,5.1v9.5h-2.3v-16.3h2.3v2c1-1.5,2.7-2.4,4.5-2.3
		c3.4,0,5.7,2,5.7,6.7v9.9L312.7,337.6z"/>
	<path class="st1" d="M324.9,337.9c-1.8,0-3.5-0.8-4.6-2.2v1.8H318v-21.3l2.3-1.3v8.3c1.2-1.5,3-2.3,4.9-2.3c3.2,0,5.8,2.5,5.8,8.2
		S328.3,337.9,324.9,337.9 M324.6,323c-1.7,0-3.2,0.9-4.3,2.3v8.1c1,1.5,2.6,2.4,4.4,2.4c2.7,0,4-2.3,4-6.7
		C328.7,325.1,327.2,323,324.6,323"/>
	<path class="st1" d="M343.7,337.6v-2c-1,1.5-2.7,2.4-4.5,2.3c-3.4,0-5.7-2-5.7-6.7v-9.9h2.3v9.5c0,3.5,1.2,5.1,3.8,5.1
		c2.3,0,4-1.5,4-5.1v-9.5h2.3v16.3L343.7,337.6z"/>
	<path class="st1" d="M357.3,323.8c-0.7-0.4-1.6-0.6-2.4-0.6c-2.3,0-3.5,1.8-3.5,4.9v9.5H349v-16.2h2.3v2c0.8-1.4,2.4-2.3,4-2.3
		c0.9,0,1.7,0.1,2.5,0.4L357.3,323.8z"/>
	<path class="st1" d="M363.1,343.6l-0.7-1.8c5.4-0.2,6.7-1.6,6.7-5.4v-0.8c-1.2,1.5-3,2.3-4.9,2.3c-3.2,0-5.8-2.5-5.8-8.2
		s2.7-8.7,6.1-8.7c1.8,0,3.5,0.8,4.6,2.2v-1.8h2.3v14.8C371.3,341,369.1,343.4,363.1,343.6 M369,325.5c-1-1.5-2.6-2.4-4.4-2.4
		c-2.7,0-4,2.3-4,6.7c0,4.1,1.5,6.2,4.1,6.2c1.7,0,3.2-0.9,4.3-2.3L369,325.5z"/>
	<path class="st1" d="M384.7,337.6v-9.5c0-3.5-1.2-5.1-3.8-5.1c-2.3,0-4,1.5-4,5.1v9.5h-2.3v-21.3l2.3-1.3v8.3
		c1-1.5,2.7-2.4,4.5-2.3c3.4,0,5.7,2,5.7,6.7v9.9L384.7,337.6z"/>
	<path class="st1" d="M410.3,337.6l-9.5-14.8c-0.5-0.7-1.3-2.2-1.5-2.7v17.6H397v-21.7h2.4l9.4,15.1c0.5,0.7,1.3,2.2,1.5,2.7v-17.8
		h2.3v21.7L410.3,337.6z"/>
	<path class="st1" d="M425.5,337.6v-2c-1.3,1.5-3.1,2.3-5.1,2.3c-2.5,0-5.2-1.3-5.2-5.2c0-3.7,3-5.2,6.2-5.2c1.4,0,2.8,0.3,4.1,0.9
		v-1.9c0-2.4-1.1-3.6-3.5-3.6c-1.6,0-3.1,0.4-4.4,1.2l-0.9-1.9c1.7-0.9,3.6-1.3,5.4-1.3c3.5,0,5.7,1.5,5.7,5.3v11.3L425.5,337.6z
		 M425.5,330.3c-1.3-0.7-2.7-1-4.2-0.9c-2.4,0-3.8,1.1-3.8,3.2c0,2.4,1.3,3.5,3.3,3.5c1.9,0,3.6-0.9,4.7-2.4V330.3z"/>
	<path class="st1" d="M438.1,337.9c-1.8,0-3.5-0.8-4.6-2.2v6.5l-2.3,1.3v-22.2h2.3v2c1.2-1.4,3-2.3,4.9-2.3c3.2,0,5.8,2.5,5.8,8.2
		S441.5,337.9,438.1,337.9 M437.9,323c-1.7,0-3.2,0.9-4.3,2.3v8.1c1,1.5,2.6,2.4,4.4,2.4c2.7,0,4-2.3,4-6.7
		C442,325.1,440.4,323,437.9,323"/>
	<path class="st1" d="M448.4,318.4c-0.9,0-1.7-0.7-1.7-1.6c0-0.9,0.7-1.7,1.6-1.7c0.9,0,1.7,0.7,1.7,1.6c0,0,0,0,0,0.1
		C450,317.7,449.3,318.4,448.4,318.4 M447.2,321.3h2.3v16.2h-2.3V321.3z"/>
	<path class="st1" d="M465.8,330.3h-10.8c0.2,3.5,1.9,5.7,4.5,5.7c1.9,0,3-0.5,4.5-1.5l1.1,1.7c-2,1.2-3.4,1.9-5.8,1.9
		c-3,0-6.6-2.2-6.6-8.5c0-5.2,2.8-8.4,6.7-8.4c4.2,0,6.5,3.3,6.5,8C465.9,329.4,465.8,329.8,465.8,330.3 M459.3,323
		c-2.4,0-4.1,1.7-4.4,5.4h8.8C463.5,325.2,462.1,323,459.3,323"/>
	<path class="st1" d="M477.2,323.8c-0.7-0.4-1.6-0.6-2.4-0.6c-2.3,0-3.5,1.8-3.5,4.9v9.5h-2.3v-16.2h2.3v2c0.8-1.4,2.4-2.3,4-2.3
		c0.9,0,1.7,0.1,2.5,0.4L477.2,323.8z"/>
	<path class="st1" d="M400.6,357.4c-2.4,0-3.6-1.5-3.6-4.2v-6h1.1v5.9c0,2.2,0.8,3.2,2.6,3.2s2.4-1,2.4-3.2v-5.9h1.1v5.9
		C404.2,355.9,403,357.4,400.6,357.4"/>
	<path class="st1" d="M412.4,357.3l-4.4-6.9c-0.2-0.3-0.6-1-0.7-1.3v8.2h-1.1v-10.1h1.1l4.4,7c0.2,0.4,0.6,1,0.7,1.3v-8.3h1.1v10.1
		H412.4z"/>
	<rect x="415.6" y="347.2" class="st1" width="1.1" height="10.1"/>
	<path class="st1" d="M423,357.3h-1.2l-3.4-10.1h1.2l2.2,6.9c0.2,0.6,0.5,1.6,0.6,2c0.1-0.4,0.4-1.4,0.6-2l2.3-6.9h1.1L423,357.3z"
		/>
	<polygon class="st1" points="428.1,357.3 428.1,347.2 434.1,347.2 434.1,348.2 429.2,348.2 429.2,351.4 432,351.4 432,352.4 
		429.2,352.4 429.2,356.2 434.3,356.2 434.3,357.3 	"/>
	<path class="st1" d="M440.8,352.9l2.2,4.4h-1.3l-2.2-4.3h-2.4v4.3H436v-10.1h4c1.8,0,3.1,0.9,3.1,2.8
		C443.2,351.5,442.2,352.7,440.8,352.9 M440,348.2h-2.8v3.7h2.7c1.5,0,2.2-0.6,2.2-1.9S441.3,348.2,440,348.2"/>
	<path class="st1" d="M447.7,357.4c-1.3,0-2.5-0.5-3.4-1.4l0.8-0.8c0.7,0.7,1.7,1.2,2.7,1.2c1.3,0,2.2-0.7,2.2-1.7
		c0-0.9-0.5-1.5-2.4-2.1c-2.2-0.8-2.9-1.5-2.9-2.9c0-1.6,1.3-2.6,3.1-2.6c1.1,0,2.2,0.4,3.1,1.1l-0.7,0.9c-0.7-0.6-1.5-0.9-2.4-0.9
		c-1.4,0-2,0.7-2,1.5c0,0.8,0.4,1.3,2.4,2c2.2,0.8,2.9,1.6,2.9,3C451.1,356.2,449.8,357.4,447.7,357.4"/>
	<rect x="452.9" y="347.2" class="st1" width="1.1" height="10.1"/>
	<polygon class="st1" points="459.8,348.2 459.8,357.3 458.7,357.3 458.7,348.2 455.7,348.2 455.7,347.2 462.8,347.2 462.8,348.2 	
		"/>
	<path class="st1" d="M468.2,353.3v4h-1.1v-4l-3.5-6.1h1.3l1.6,2.9c0.4,0.7,0.8,1.6,1.1,2.2c0.3-0.6,0.7-1.4,1.1-2.2l1.6-2.9h1.2
		L468.2,353.3z"/>
	<path class="st1" d="M246.6,328.1v5.4c0,0.3,0.1,0.6,0.3,0.8c0.2,0.2,0.5,0.3,0.8,0.3l-0.1,2c-1.1,0.1-2.2-0.2-3.1-0.9
		c-1.2,0.6-2.5,0.9-3.8,0.9c-2.4,0-3.5-1.3-3.5-3.8c0-1.2,0.3-2.1,1-2.6c0.9-0.6,1.9-1,3-1l3.1-0.3v-0.9c0.1-0.5-0.1-1-0.4-1.3
		c-0.3-0.3-0.8-0.4-1.2-0.4c-1,0-2.3,0.1-3.8,0.2l-0.8,0l-0.2-1.8c1.6-0.4,3.2-0.6,4.8-0.6c1.4,0,2.5,0.3,3.1,0.9
		C246.3,325.8,246.6,326.8,246.6,328.1 M241.3,331.1c-0.9,0-1.6,0.7-1.6,1.6c0,0.1,0,0.1,0,0.2c0,1.1,0.5,1.6,1.5,1.6
		c0.9,0,1.7-0.1,2.5-0.4l0.4-0.1v-3.2L241.3,331.1z"/>
	<path class="st1" d="M255.8,326.7h-3.3v5.2c0,0.7,0,1.3,0.2,1.9c0.1,0.3,0.5,0.5,1.1,0.5l2-0.1l0.1,2.1c-0.8,0.2-1.6,0.3-2.4,0.3
		c-1.4,0-2.3-0.3-2.8-0.9c-0.5-0.6-0.7-1.8-0.8-3.5v-5.5h-1.5v-2.2h1.5V321h2.6v3.5h3.3V326.7z"/>
	
		<linearGradient id="SVGID_1_" gradientUnits="userSpaceOnUse" x1="485.2995" y1="-60.0059" x2="478.0392" y2="-77.2545" gradientTransform="matrix(1 0 0 -1 0 272.7129)">
		<stop  offset="0" style="stop-color:#C7C6C6"/>
		<stop  offset="0.15" style="stop-color:#C7C6C6"/>
		<stop  offset="0.25" style="stop-color:#D0CFCF;stop-opacity:0.84"/>
		<stop  offset="0.49" style="stop-color:#E4E3E3;stop-opacity:0.48"/>
		<stop  offset="0.69" style="stop-color:#F3F2F2;stop-opacity:0.22"/>
		<stop  offset="0.84" style="stop-color:#FCFCFC;stop-opacity:6.000000e-02"/>
		<stop  offset="0.93" style="stop-color:#FFFFFF;stop-opacity:0"/>
	</linearGradient>
	<polygon class="st2" points="457.3,345.6 497.3,357.7 493.8,337.6 	"/>
	<path class="st1" d="M236.4,169.2h6.4c1.5,0,2.7,0.4,3.4,1.1c0.8,0.8,1.3,2,1.2,3.1c0,0.7-0.1,1.4-0.4,2.1c-0.3,0.6-0.8,1-1.3,1.4
		c0.5,0.1,1.1,0.3,1.6,0.5c0.4,0.2,0.8,0.5,1,0.9c0.3,0.3,0.5,0.7,0.6,1.2c0.1,0.5,0.2,0.9,0.2,1.4c0,0.7-0.1,1.4-0.4,2
		c-0.3,0.6-0.7,1.1-1.2,1.5c-0.5,0.4-1.1,0.7-1.8,0.9c-0.8,0.2-1.6,0.3-2.3,0.3h-6.8V169.2z M240.6,175.6h0.8c1.3,0,2-0.5,2-1.6
		s-0.7-1.6-2-1.6h-0.8V175.6z M240.6,182.2h0.9c0.8,0.1,1.6-0.1,2.3-0.4c0.5-0.3,0.7-0.8,0.7-1.3c0-0.5-0.2-1-0.7-1.3
		c-0.7-0.3-1.5-0.5-2.3-0.4h-0.9V182.2z"/>
	<path class="st1" d="M255.7,169.2v12.8h5.1v3.6h-9.4v-16.4H255.7z"/>
	<path class="st1" d="M261.9,177.3c0-1.2,0.2-2.3,0.7-3.4c0.4-1,1.1-2,1.9-2.7c0.8-0.8,1.8-1.4,2.9-1.8c2.4-0.9,5-0.9,7.3,0
		c1.1,0.4,2.1,1,2.9,1.8c0.8,0.8,1.4,1.7,1.9,2.7c0.5,1.1,0.7,2.2,0.7,3.4c0,1.2-0.2,2.3-0.7,3.4c-0.4,1-1.1,2-1.9,2.7
		c-0.8,0.8-1.8,1.4-2.9,1.8c-2.4,0.9-5,0.9-7.3,0c-1.1-0.4-2-1-2.9-1.8c-0.8-0.8-1.4-1.7-1.9-2.7
		C262.1,179.7,261.9,178.5,261.9,177.3z M266.4,177.3c0,0.6,0.1,1.2,0.4,1.8c0.2,0.5,0.6,1,1,1.4c0.4,0.4,0.9,0.7,1.5,1
		c1.1,0.4,2.4,0.4,3.5,0c0.5-0.2,1.1-0.5,1.5-1c0.4-0.4,0.8-0.9,1-1.4c0.3-0.6,0.4-1.2,0.4-1.8c0-0.6-0.1-1.2-0.4-1.8
		c-0.2-0.5-0.6-1-1-1.4c-0.4-0.4-0.9-0.7-1.5-1c-1.1-0.4-2.4-0.4-3.5,0c-0.5,0.2-1,0.5-1.5,1c-0.4,0.4-0.8,0.9-1,1.4
		C266.5,176.1,266.4,176.7,266.4,177.3z"/>
	<path class="st1" d="M294.6,174.6c-1.3-1.6-3.5-2.2-5.4-1.5c-1.1,0.4-1.9,1.3-2.3,2.4c-0.2,0.6-0.4,1.2-0.4,1.8
		c0,0.6,0.1,1.2,0.3,1.8c0.7,1.7,2.3,2.8,4.1,2.7c1.4,0,2.8-0.7,3.7-1.7v5l-0.4,0.2c-0.6,0.2-1.2,0.4-1.8,0.5
		c-0.6,0.1-1.1,0.2-1.7,0.2c-2.2,0-4.4-0.9-6-2.4c-0.8-0.8-1.4-1.7-1.9-2.8c-0.5-1.1-0.7-2.3-0.7-3.5c0-1.2,0.2-2.4,0.7-3.5
		c0.9-2.1,2.6-3.7,4.6-4.5c1-0.4,2.2-0.6,3.3-0.6c0.6,0,1.3,0.1,1.9,0.2c0.7,0.2,1.3,0.4,2,0.6V174.6z"/>
	<path class="st1" d="M302.3,175.9l5.2-6.8h5.3l-6.5,7.8l7.1,8.6h-5.5l-5.5-7.1v7.1H298v-16.4h4.3V175.9z"/>
	<path class="st1" d="M319.5,185.5h-4.2v-16.4h6.8c1.8,0,3.2,0.5,4.2,1.4c1,1,1.5,2.3,1.5,4c0,1.7-0.5,3.1-1.5,4
		c-1,1-2.4,1.4-4.2,1.4h-2.5L319.5,185.5z M319.5,176.7h1.4c1.6,0,2.3-0.7,2.3-2s-0.8-2-2.3-2h-1.4V176.7z"/>
	<path class="st1" d="M339.1,182.7H333l-1,2.8h-4.5l6.2-16.4h4.7l6.2,16.4h-4.5L339.1,182.7z M338,179.5L336,174l-1.9,5.5H338z"/>
	<path class="st1" d="M355.5,173.3c-0.4-0.3-0.9-0.6-1.4-0.8c-0.4-0.2-0.9-0.3-1.4-0.3c-0.5,0-1,0.1-1.4,0.4c-0.3,0.2-0.5,0.6-0.5,1
		c0,0.3,0.1,0.5,0.3,0.7c0.2,0.2,0.4,0.4,0.7,0.5c0.3,0.1,0.6,0.3,1,0.4c0.4,0.1,0.7,0.2,1.1,0.3c1.2,0.3,2.2,1,3.1,1.9
		c0.7,0.9,1,1.9,1,3c0,0.8-0.1,1.6-0.4,2.3c-0.3,0.7-0.7,1.3-1.2,1.8c-0.6,0.5-1.3,0.9-2,1.1c-0.9,0.3-1.8,0.4-2.7,0.4
		c-2.1,0-4.1-0.6-5.8-1.8l1.8-3.4c0.6,0.5,1.2,0.9,1.9,1.3c0.6,0.3,1.2,0.4,1.8,0.4c0.6,0,1.1-0.1,1.6-0.5c0.3-0.3,0.5-0.7,0.5-1.1
		c0-0.2,0-0.4-0.1-0.6c-0.1-0.2-0.3-0.4-0.4-0.5c-0.2-0.2-0.5-0.3-0.8-0.4c-0.3-0.1-0.7-0.3-1.2-0.4c-0.5-0.2-1.1-0.4-1.6-0.6
		c-0.5-0.2-1-0.5-1.4-0.8c-0.4-0.4-0.8-0.8-1-1.3c-0.3-0.6-0.4-1.3-0.4-2c0-0.8,0.1-1.5,0.4-2.2c0.3-0.6,0.6-1.2,1.1-1.7
		c0.5-0.5,1.1-0.8,1.8-1.1c0.7-0.3,1.5-0.4,2.3-0.4c0.9,0,1.7,0.1,2.6,0.3c0.9,0.2,1.7,0.6,2.5,1L355.5,173.3z"/>
	<path class="st1" d="M369.5,173.3c-0.4-0.3-0.9-0.6-1.4-0.8c-0.4-0.2-0.9-0.3-1.3-0.3c-0.5,0-1,0.1-1.4,0.4c-0.3,0.2-0.5,0.6-0.5,1
		c0,0.3,0.1,0.5,0.3,0.7c0.2,0.2,0.4,0.4,0.7,0.5c0.3,0.1,0.6,0.3,1,0.4c0.4,0.1,0.7,0.2,1.1,0.3c1.2,0.3,2.2,1,3.1,1.9
		c0.7,0.9,1,1.9,1,3c0,0.8-0.1,1.6-0.4,2.3c-0.3,0.7-0.7,1.3-1.2,1.8c-0.6,0.5-1.3,0.9-2,1.1c-0.9,0.3-1.8,0.4-2.7,0.4
		c-2.1,0-4.1-0.6-5.8-1.8l1.8-3.4c0.6,0.5,1.2,0.9,1.9,1.3c0.6,0.3,1.2,0.4,1.8,0.4c0.6,0,1.1-0.1,1.6-0.5c0.5-0.4,0.7-1.1,0.4-1.7
		c-0.1-0.2-0.3-0.4-0.4-0.5c-0.2-0.2-0.5-0.3-0.8-0.4c-0.3-0.1-0.7-0.3-1.2-0.4c-0.5-0.2-1.1-0.4-1.6-0.6c-0.5-0.2-1-0.5-1.4-0.8
		c-0.4-0.4-0.8-0.8-1-1.3c-0.3-0.6-0.4-1.3-0.4-2c0-0.8,0.1-1.5,0.4-2.2c0.3-0.6,0.6-1.2,1.1-1.7c0.5-0.5,1.1-0.8,1.8-1.1
		c0.8-0.3,1.6-0.4,2.4-0.4c0.9,0,1.7,0.1,2.6,0.3c0.9,0.2,1.7,0.6,2.5,1L369.5,173.3z"/>
	<path class="st1" d="M386.2,169.2v16.4H382v-16.4H386.2z"/>
	<path class="st1" d="M389.7,169.2h6.3c1.1,0,2.2,0.2,3.1,0.7c1,0.4,1.8,1,2.6,1.8c0.7,0.8,1.3,1.6,1.7,2.6c0.8,2,0.8,4.2,0,6.2
		c-0.4,1-1,1.9-1.7,2.6c-0.7,0.8-1.6,1.4-2.6,1.8c-1,0.5-2.1,0.7-3.2,0.7h-6.3V169.2z M393.9,181.9h1c0.7,0,1.3-0.1,2-0.3
		c0.6-0.2,1.1-0.5,1.5-1c0.4-0.4,0.7-0.9,0.9-1.4c0.2-0.6,0.3-1.2,0.3-1.8c0-0.6-0.1-1.2-0.3-1.8c-0.4-1.1-1.3-2-2.4-2.4
		c-0.6-0.2-1.3-0.4-2-0.3h-1V181.9z"/>
	<path class="st1" d="M416.1,172.8H411v2.7h4.8v3.6H411v2.8h5.1v3.6h-9.3v-16.4h9.3V172.8z"/>
	<path class="st1" d="M419.2,185.5v-16.4h4.3l7.9,10v-10h4.2v16.4h-4.2l-7.9-10v10H419.2z"/>
	<path class="st1" d="M445.2,172.8v12.8h-4.3v-12.8h-3.5v-3.6h11.3v3.6H445.2z"/>
	<path class="st1" d="M454.9,169.2v16.4h-4.3v-16.4H454.9z"/>
	<path class="st1" d="M464.5,172.8v12.8h-4.3v-12.8h-3.5v-3.6H468v3.6H464.5z"/>
	<path class="st1" d="M474.9,177.7l-6-8.5h5.1l3,4.5l3-4.5h5.1l-6,8.5v7.9h-4.3V177.7z"/>
	<path class="st1" d="M498.4,169.2v12.8h5.1v3.6h-9.4v-16.4H498.4z"/>
	<path class="st1" d="M516.4,182.7h-6.1l-1,2.8h-4.5l6.2-16.4h4.7l6.2,16.4h-4.5L516.4,182.7z M515.3,179.5l-1.9-5.5l-1.9,5.5H515.3
		z"/>
	<path class="st1" d="M523.8,169.2h6.4c1.5,0,2.7,0.4,3.4,1.1c0.8,0.8,1.3,2,1.2,3.1c0,0.7-0.1,1.4-0.4,2.1c-0.3,0.6-0.8,1-1.4,1.4
		c0.5,0.1,1.1,0.3,1.6,0.5c0.8,0.4,1.4,1.2,1.6,2.1c0.1,0.5,0.2,0.9,0.2,1.4c0,0.7-0.1,1.4-0.4,2c-0.2,0.6-0.6,1.1-1.1,1.5
		c-0.5,0.4-1.1,0.7-1.8,0.9c-0.8,0.2-1.6,0.3-2.3,0.3h-6.9V169.2z M528.1,175.6h0.8c1.3,0,2-0.5,2-1.6s-0.7-1.6-2-1.6h-0.8V175.6z
		 M528.1,182.2h0.9c0.8,0.1,1.6-0.1,2.3-0.4c0.5-0.3,0.7-0.8,0.7-1.3c0-0.5-0.2-1.1-0.7-1.3c-0.7-0.3-1.5-0.5-2.3-0.4h-0.9V182.2z"
		/>
	<rect x="401" y="197.9" class="st1" width="19.6" height="19.6"/>
	<rect x="401" y="220.8" class="st1" width="19.6" height="19.6"/>
	<rect x="424.4" y="220.8" class="st1" width="19.6" height="19.6"/>
	<rect x="447.8" y="220.8" class="st1" width="19.6" height="19.6"/>
	<rect x="471.2" y="220.8" class="st1" width="19.6" height="19.6"/>
	<rect x="447.8" y="243.8" class="st1" width="19.6" height="19.6"/>
	<rect x="318.5" y="197.9" class="st1" width="20.5" height="102.4"/>
	<path class="st1" d="M236.6,300.3H298V197.9h-61.4V300.3z M277.5,279.8H257v-20.5h20.5V279.8z M277.5,238.8H257v-20.5h20.5V238.8z"
		/>
	<polygon class="st1" points="379.9,279.8 379.9,197.9 359.4,197.9 359.4,279.8 359.4,300.3 379.9,300.3 420.9,300.3 420.9,279.8 	
		"/>
</g>
</svg>
