<svg xmlns="http://www.w3.org/2000/svg" xmlns:xlink="http://www.w3.org/1999/xlink" viewBox="0 0 568.25 349.89"><defs><linearGradient id="a" x1="460.84" y1="303.64" x2="447.4" y2="335.57" gradientUnits="userSpaceOnUse"><stop offset="0" stop-color="#c7c6c6"/><stop offset="0.15" stop-color="#c7c6c6"/><stop offset="0.25" stop-color="#d0cfcf" stop-opacity="0.84"/><stop offset="0.49" stop-color="#e4e3e3" stop-opacity="0.48"/><stop offset="0.69" stop-color="#f3f2f2" stop-opacity="0.22"/><stop offset="0.84" stop-color="#fcfcfc" stop-opacity="0.06"/><stop offset="0.93" stop-color="#fff" stop-opacity="0"/></linearGradient></defs><title>Asset 1</title><g style="isolation:isolate"><polygon points="421.48 220.94 476.56 312.63 568.25 257.54 421.48 220.94" style="fill:#fff"/><polygon points="53.8 312.67 53.8 272.56 78.04 272.56 78.04 276.63 58.27 276.63 58.27 289.23 69.73 289.23 69.73 293.3 58.27 293.3 58.27 308.6 78.9 308.6 78.9 312.67 53.8 312.67" style="fill:#fff"/><path d="M100.67,312.67V309a12,12,0,0,1-9,4.3c-6,0-10.77-4.59-10.77-15.19S85.89,282,92.19,282a10.67,10.67,0,0,1,8.48,4V273.3l4.3-2.4v41.77Zm0-22.47a9.82,9.82,0,0,0-8.13-4.52c-5,0-7.45,4.29-7.45,12.37,0,7.57,2.86,11.52,7.62,11.52,3.21,0,5.84-1.72,8-4.35Z" style="fill:#fff"/><path d="M113.74,277.2a3.07,3.07,0,1,1,3-3,3.05,3.05,0,0,1-3,3m-2.24,5.39h4.3v30.08h-4.3Z" style="fill:#fff"/><path d="M141.3,312.67V295.08c0-6.48-2.29-9.4-7.11-9.4-4.18,0-7.45,2.81-7.45,9.4v17.59h-4.3V282.58h4.3v3.67a9.73,9.73,0,0,1,8.31-4.29c6.36,0,10.54,3.72,10.54,12.37v18.34Z" style="fill:#fff"/><path d="M163.93,313.3a10.71,10.71,0,0,1-8.48-4v3.37h-4.3V273.3l4.3-2.41v15.36a12,12,0,0,1,9.05-4.3c6,0,10.77,4.59,10.77,15.19s-5,16.16-11.34,16.16m-.52-27.62c-3.2,0-5.84,1.71-8,4.35v15a9.81,9.81,0,0,0,8.14,4.53c5,0,7.44-4.3,7.44-12.38,0-7.56-2.86-11.51-7.62-11.51" style="fill:#fff"/><path d="M198.76,312.67V309a9.72,9.72,0,0,1-8.31,4.3c-6.35,0-10.53-3.73-10.53-12.38V282.58h4.29v17.6c0,6.47,2.29,9.39,7.11,9.39,4.18,0,7.44-2.8,7.44-9.39v-17.6h4.3v30.09Z" style="fill:#fff"/><path d="M223.92,287.05a8.5,8.5,0,0,0-4.53-1.14c-4.18,0-6.53,3.38-6.53,9.11v17.64h-4.3V282.58h4.3v3.73a8.82,8.82,0,0,1,7.45-4.35,11.54,11.54,0,0,1,4.7.74Z" style="fill:#fff"/><path d="M234.58,323.72l-1.38-3.26c10-.29,12.32-2.92,12.32-9.91V309a12,12,0,0,1-9.05,4.3c-6,0-10.77-4.59-10.77-15.19S230.74,282,237,282a10.68,10.68,0,0,1,8.48,4v-3.39h4.29V310c0,9.06-4.06,13.41-15.23,13.75m10.94-33.52a9.84,9.84,0,0,0-8.14-4.52c-5,0-7.44,4.29-7.44,12.37,0,7.57,2.86,11.52,7.62,11.52,3.2,0,5.84-1.72,8-4.35Z" style="fill:#fff"/><path d="M274.68,312.67V295.08c0-6.48-2.29-9.4-7.1-9.4-4.18,0-7.45,2.81-7.45,9.4v17.59h-4.3V273.3l4.3-2.4v15.35a9.73,9.73,0,0,1,8.31-4.29c6.36,0,10.54,3.72,10.54,12.37v18.34Z" style="fill:#fff"/><path d="M322.07,312.67l-17.54-27.45c-.86-1.38-2.34-4-2.86-5v32.49h-4.3V272.56h4.36l17.36,28c.86,1.37,2.35,4,2.86,5v-33h4.3v40.11Z" style="fill:#fff"/><path d="M350.08,312.67V309a12.37,12.37,0,0,1-9.39,4.29c-4.7,0-9.63-2.34-9.63-9.62,0-6.76,5.56-9.63,11.52-9.63a16.13,16.13,0,0,1,7.5,1.72v-3.55c0-4.47-2.11-6.65-6.53-6.65a15.65,15.65,0,0,0-8.19,2.3l-1.6-3.5A21.46,21.46,0,0,1,343.84,282c6.47,0,10.54,2.75,10.54,9.75v21Zm0-13.47a14.52,14.52,0,0,0-7.73-1.72c-4.41,0-7.05,2.12-7.05,5.9,0,4.47,2.47,6.42,6.13,6.42a10.53,10.53,0,0,0,8.65-4.53Z" style="fill:#fff"/><path d="M373.46,313.3a10.71,10.71,0,0,1-8.48-4v12l-4.3,2.41V282.58H365v3.67a12,12,0,0,1,9-4.3c6,0,10.78,4.59,10.78,15.19s-5,16.16-11.35,16.16M373,285.68c-3.21,0-5.85,1.71-8,4.35v15a9.82,9.82,0,0,0,8.14,4.53c5,0,7.45-4.3,7.45-12.38,0-7.56-2.87-11.51-7.62-11.51" style="fill:#fff"/><path d="M392.48,277.2a3.07,3.07,0,1,1,3-3,3.08,3.08,0,0,1-3,3m-2.23,5.39h4.3v30.08h-4.3Z" style="fill:#fff"/><path d="M424.69,299.09H404.63c.4,6.41,3.44,10.48,8.36,10.48,3.5,0,5.56-1,8.31-2.86l2,3.09c-3.61,2.29-6.25,3.5-10.77,3.5-5.5,0-12.21-4-12.21-15.82,0-9.56,5.27-15.53,12.44-15.53,7.85,0,12.09,6.19,12.09,14.78a13.7,13.7,0,0,1-.17,2.36m-12-13.41c-4.47,0-7.56,3.2-8.08,9.91h16.22c-.35-5.85-2.87-9.91-8.14-9.91" style="fill:#fff"/><path d="M445.83,287.05a8.47,8.47,0,0,0-4.53-1.14c-4.18,0-6.53,3.38-6.53,9.11v17.64h-4.3V282.58h4.3v3.73a8.84,8.84,0,0,1,7.45-4.35,11.54,11.54,0,0,1,4.7.74Z" style="fill:#fff"/><path d="M304.06,349.36c-4.44,0-6.73-2.69-6.73-7.85V330.44h2.07v11c0,4,1.55,6,4.77,6s4.5-1.94,4.5-6V330.44h2.08v11c0,5.16-2.22,7.9-6.69,7.9" style="fill:#fff"/><path d="M325.86,349.07l-8.14-12.75c-.4-.64-1.09-1.86-1.33-2.34v15.09h-2V330.44h2l8.06,13c.4.65,1.09,1.87,1.33,2.35V330.44h2v18.63Z" style="fill:#fff"/><rect x="331.78" y="330.44" width="2.08" height="18.63" style="fill:#fff"/><path d="M345.54,349.07h-2.29l-6.34-18.63h2.19l4.15,12.75c.37,1.12,1,3,1.14,3.67.19-.67.83-2.64,1.18-3.72l4.18-12.7h2.12Z" style="fill:#fff"/><polygon points="354.86 349.07 354.86 330.44 366.12 330.44 366.12 332.32 356.94 332.32 356.94 338.18 362.26 338.18 362.26 340.07 356.94 340.07 356.94 347.18 366.51 347.18 366.51 349.07 354.86 349.07" style="fill:#fff"/><path d="M378.39,341l4.1,8.09h-2.4l-4-7.94h-4.42v7.94h-2.07V330.44H377c3.28,0,5.8,1.67,5.8,5.27a5.08,5.08,0,0,1-4.39,5.27m-1.49-8.65h-5.22v6.94h4.95c2.77,0,4.08-1.14,4.08-3.48s-1.34-3.46-3.81-3.46" style="fill:#fff"/><path d="M391.28,349.36a8.88,8.88,0,0,1-6.26-2.58l1.39-1.54a7,7,0,0,0,4.95,2.23c2.47,0,4-1.22,4-3.19,0-1.73-1-2.72-4.44-3.94-4-1.44-5.38-2.74-5.38-5.43,0-3,2.34-4.77,5.83-4.77a8.35,8.35,0,0,1,5.67,2l-1.33,1.62a6.51,6.51,0,0,0-4.47-1.73c-2.56,0-3.62,1.28-3.62,2.74s.69,2.43,4.42,3.76c4.12,1.49,5.4,2.88,5.4,5.64,0,2.93-2.29,5.19-6.17,5.19" style="fill:#fff"/><rect x="400.91" y="330.44" width="2.08" height="18.63" style="fill:#fff"/><polygon points="413.61 332.33 413.61 349.07 411.53 349.07 411.53 332.33 406.05 332.33 406.05 330.44 419.1 330.44 419.1 332.33 413.61 332.33" style="fill:#fff"/><path d="M429.27,341.67v7.4h-2.08V341.7l-6.39-11.26h2.37l3,5.34c.74,1.37,1.56,2.91,2.09,4,.54-1.09,1.36-2.66,2.11-4l3-5.34h2.31Z" style="fill:#fff"/><path d="M19,295.13v10.05a2.08,2.08,0,0,0,.5,1.43,2.46,2.46,0,0,0,1.43.6l-.13,3.65A9.31,9.31,0,0,1,15,309.24a16.84,16.84,0,0,1-7.1,1.62q-6.57,0-6.56-7c0-2.24.59-3.85,1.78-4.85a9.67,9.67,0,0,1,5.49-1.81l5.69-.48v-1.59a3.22,3.22,0,0,0-.78-2.47,3.25,3.25,0,0,0-2.27-.7c-1.88,0-4.23.11-7,.35l-1.41.09L2.56,289a38.56,38.56,0,0,1,8.84-1.14q4,0,5.82,1.74T19,295.13M9.13,300.6a3,3,0,0,0-3,3.3c0,2,.9,3,2.69,3a17,17,0,0,0,4.67-.7l.8-.27v-5.86Z" style="fill:#fff"/><path d="M36,292.44H29.92v9.7a10.49,10.49,0,0,0,.39,3.57c.27.58.94.87,2,.87l3.61-.13.23,3.84a25.85,25.85,0,0,1-4.5.57q-3.75,0-5.13-1.71t-1.39-6.49V292.44H22.34v-4.1h2.82V282h4.76v6.39H36Z" style="fill:#fff"/><polygon points="409.01 327.52 483.14 349.89 476.56 312.63 409.01 327.52" style="mix-blend-mode:multiply;fill:url(#a)"/><path d="M0,.85H11.76q4.19,0,6.36,2a7.5,7.5,0,0,1,2.17,5.8,7.83,7.83,0,0,1-.82,3.8A6.93,6.93,0,0,1,17,15a9.45,9.45,0,0,1,2.88,1,6.34,6.34,0,0,1,1.93,1.64,6.12,6.12,0,0,1,1.07,2.17,9.81,9.81,0,0,1,.32,2.58,9.2,9.2,0,0,1-.74,3.78A7.73,7.73,0,0,1,20.31,29,8.87,8.87,0,0,1,17,30.64a15.35,15.35,0,0,1-4.35.56H0ZM7.89,12.76H9.34q3.71,0,3.7-2.94T9.34,6.89H7.89Zm0,12.32H9.62a8.82,8.82,0,0,0,4.27-.76,2.64,2.64,0,0,0,1.29-2.46,2.64,2.64,0,0,0-1.29-2.45,8.8,8.8,0,0,0-4.27-.77H7.89Z" style="fill:#fff"/><path d="M35.75.85V24.52h9.47V31.2H27.86V.85Z" style="fill:#fff"/><path d="M47.31,16a15.92,15.92,0,0,1,1.25-6.3A15.68,15.68,0,0,1,52,4.63a15.88,15.88,0,0,1,5.29-3.4,19.27,19.27,0,0,1,13.55,0,16,16,0,0,1,5.34,3.4,15.58,15.58,0,0,1,3.48,5.09A15.92,15.92,0,0,1,80.93,16a15.93,15.93,0,0,1-1.25,6.31,15.58,15.58,0,0,1-3.48,5.09,16,16,0,0,1-5.34,3.4,19.27,19.27,0,0,1-13.55,0A15.88,15.88,0,0,1,52,27.42a15.68,15.68,0,0,1-3.46-5.09A15.93,15.93,0,0,1,47.31,16Zm8.25,0a8.06,8.06,0,0,0,.69,3.35A8.43,8.43,0,0,0,58.1,22a8.28,8.28,0,0,0,2.72,1.76,9,9,0,0,0,6.56,0A8.58,8.58,0,0,0,70.12,22,8.32,8.32,0,0,0,72,19.37,8.06,8.06,0,0,0,72.68,16,8.05,8.05,0,0,0,72,12.68,8.32,8.32,0,0,0,70.12,10a8.58,8.58,0,0,0-2.74-1.76,9,9,0,0,0-6.56,0A8.28,8.28,0,0,0,58.1,10a8.43,8.43,0,0,0-1.85,2.65A8.05,8.05,0,0,0,55.56,16Z" style="fill:#fff"/><path d="M107.78,11a8.57,8.57,0,0,0-10-2.7,7.91,7.91,0,0,0-4.31,4.39A8.58,8.58,0,0,0,92.8,16a8.73,8.73,0,0,0,.63,3.35A8,8,0,0,0,101,24.4a9.12,9.12,0,0,0,6.8-3.22v9.34l-.8.28a23.4,23.4,0,0,1-3.38.95,16.62,16.62,0,0,1-3.11.3A15.9,15.9,0,0,1,89.4,27.52a16.81,16.81,0,0,1-3.52-5.11,15.57,15.57,0,0,1-1.33-6.47,15.58,15.58,0,0,1,1.31-6.42,15.8,15.8,0,0,1,8.6-8.33A15.86,15.86,0,0,1,100.53,0a17,17,0,0,1,3.57.38,21.74,21.74,0,0,1,3.68,1.19Z" style="fill:#fff"/><path d="M122,13.37,131.58.85h9.74l-12,14.37,13.16,16H132.22L122,18V31.2h-7.89V.85H122Z" style="fill:#fff"/><path d="M153.84,31.2H146V.85h12.57q5.1,0,7.82,2.65c1.82,1.77,2.72,4.27,2.72,7.49s-.9,5.72-2.72,7.49-4.42,2.66-7.82,2.66h-4.68Zm0-16.42h2.62q4.35,0,4.35-3.79t-4.35-3.78h-2.62Z" style="fill:#fff"/><path d="M190.16,25.93H178.89l-1.81,5.27h-8.42L180.22.85h8.61L200.39,31.2H192Zm-2.09-6L184.52,9.82,181,19.93Z" style="fill:#fff"/><path d="M220.52,8.62A9.67,9.67,0,0,0,218,7.07a6.81,6.81,0,0,0-2.5-.51,4,4,0,0,0-2.5.73,2.26,2.26,0,0,0-1,1.89,1.9,1.9,0,0,0,.49,1.33,4.19,4.19,0,0,0,1.27.91,11.31,11.31,0,0,0,1.77.66q1,.28,2,.6a12.18,12.18,0,0,1,5.66,3.45,8.48,8.48,0,0,1,1.79,5.61,11,11,0,0,1-.78,4.23,8.89,8.89,0,0,1-2.3,3.24,10.64,10.64,0,0,1-3.71,2.1,15.59,15.59,0,0,1-5,.74,18.3,18.3,0,0,1-10.67-3.42l3.39-6.36a13.57,13.57,0,0,0,3.5,2.33,8.39,8.39,0,0,0,3.42.77,4.09,4.09,0,0,0,2.88-.89,2.7,2.7,0,0,0,1-2,2.58,2.58,0,0,0-.25-1.19,2.64,2.64,0,0,0-.8-.93,6.65,6.65,0,0,0-1.47-.78c-.6-.24-1.34-.51-2.2-.81-1-.32-2-.67-3-1.06a9.5,9.5,0,0,1-2.62-1.55,7.36,7.36,0,0,1-1.86-2.44,8.75,8.75,0,0,1-.7-3.72,10.68,10.68,0,0,1,.75-4.09,9,9,0,0,1,2.09-3.14,9.5,9.5,0,0,1,3.3-2A12.56,12.56,0,0,1,214.24,0,19.43,19.43,0,0,1,219,.62a20.65,20.65,0,0,1,4.71,1.84Z" style="fill:#fff"/><path d="M246.53,8.62A9.56,9.56,0,0,0,244,7.07a6.76,6.76,0,0,0-2.49-.51,4,4,0,0,0-2.5.73,2.26,2.26,0,0,0-1,1.89,1.85,1.85,0,0,0,.49,1.33,4.19,4.19,0,0,0,1.27.91,11.31,11.31,0,0,0,1.77.66c.66.19,1.3.39,1.95.6a12.24,12.24,0,0,1,5.66,3.45,8.48,8.48,0,0,1,1.79,5.61,10.81,10.81,0,0,1-.79,4.23,8.86,8.86,0,0,1-2.29,3.24,10.64,10.64,0,0,1-3.71,2.1,15.59,15.59,0,0,1-5,.74,18.3,18.3,0,0,1-10.67-3.42l3.38-6.36a13.78,13.78,0,0,0,3.51,2.33,8.39,8.39,0,0,0,3.42.77,4.09,4.09,0,0,0,2.88-.89,2.71,2.71,0,0,0,.7-3.2,2.64,2.64,0,0,0-.8-.93,6.65,6.65,0,0,0-1.47-.78c-.61-.24-1.34-.51-2.2-.81-1-.32-2-.67-3-1.06a9.44,9.44,0,0,1-2.61-1.55,7.36,7.36,0,0,1-1.86-2.44,8.6,8.6,0,0,1-.7-3.72,10.87,10.87,0,0,1,.74-4.09,9.12,9.12,0,0,1,2.1-3.14,9.5,9.5,0,0,1,3.3-2A12.56,12.56,0,0,1,240.25,0,19.43,19.43,0,0,1,245,.62a20.65,20.65,0,0,1,4.71,1.84Z" style="fill:#fff"/><path d="M277.45.85V31.2h-7.89V.85Z" style="fill:#fff"/><path d="M283.81.85h11.68a13.79,13.79,0,0,1,5.82,1.24,16,16,0,0,1,4.75,3.33,15.48,15.48,0,0,1,3.2,4.83,14.86,14.86,0,0,1,0,11.51,15.29,15.29,0,0,1-3.18,4.85A15.84,15.84,0,0,1,301.35,30a13.91,13.91,0,0,1-5.86,1.24H283.81Zm7.89,23.67h1.82a9.75,9.75,0,0,0,3.66-.64,7.91,7.91,0,0,0,2.72-1.77,7.69,7.69,0,0,0,1.69-2.68,9.61,9.61,0,0,0,.58-3.41,9.43,9.43,0,0,0-.6-3.38,7.56,7.56,0,0,0-4.43-4.47,9.65,9.65,0,0,0-3.62-.64H291.7Z" style="fill:#fff"/><path d="M332.73,7.53h-9.38V12.6h8.86v6.69h-8.86v5.23h9.38V31.2H315.46V.85h17.27Z" style="fill:#fff"/><path d="M338.41,31.2V.85h7.89l14.58,18.56V.85h7.85V31.2h-7.85L346.3,12.64V31.2Z" style="fill:#fff"/><path d="M386.6,7.53V31.2h-7.89V7.53h-6.48V.85h20.86V7.53Z" style="fill:#fff"/><path d="M404.48.85V31.2h-7.89V.85Z" style="fill:#fff"/><path d="M422.36,7.53V31.2h-7.89V7.53H408V.85h20.85V7.53Z" style="fill:#fff"/><path d="M441.65,16.63,430.57.85H440l5.63,8.29,5.6-8.29h9.42L449.54,16.63V31.2h-7.89Z" style="fill:#fff"/><path d="M485,.85V24.52h9.46V31.2H477.12V.85Z" style="fill:#fff"/><path d="M518.38,25.93H507.11L505.3,31.2h-8.42L508.44.85h8.62L528.61,31.2H520.2Zm-2.09-6L512.75,9.82,509.2,19.93Z" style="fill:#fff"/><path d="M532.07.85h11.76q4.18,0,6.36,2a7.5,7.5,0,0,1,2.18,5.8,7.83,7.83,0,0,1-.83,3.8A7,7,0,0,1,549,15a9.48,9.48,0,0,1,2.87,1,6.08,6.08,0,0,1,3,3.81,10.25,10.25,0,0,1,.31,2.58,9,9,0,0,1-.74,3.78A7.71,7.71,0,0,1,552.39,29a9,9,0,0,1-3.28,1.69,15.4,15.4,0,0,1-4.35.56H532.07ZM540,12.76h1.46c2.46,0,3.7-1,3.7-2.94s-1.24-2.93-3.7-2.93H540Zm0,12.32h1.74a8.84,8.84,0,0,0,4.27-.76,2.64,2.64,0,0,0,1.28-2.46A2.63,2.63,0,0,0,546,19.41a8.82,8.82,0,0,0-4.27-.77H540Z" style="fill:#fff"/><rect x="304.85" y="54.03" width="36.29" height="36.29" style="fill:#fff"/><rect x="304.85" y="96.53" width="36.29" height="36.29" style="fill:#fff"/><rect x="348.14" y="96.53" width="36.29" height="36.29" style="fill:#fff"/><rect x="391.44" y="96.53" width="36.29" height="36.29" style="fill:#fff"/><rect x="434.73" y="96.53" width="36.29" height="36.29" style="fill:#fff"/><rect x="391.44" y="139.03" width="36.29" height="36.29" style="fill:#fff"/><rect x="152.01" y="54.03" width="37.9" height="189.52" style="fill:#fff"/><path d="M.39,243.55H114.11V54H.39Zm75.81-37.9H38.3V167.74H76.2Zm0-75.81H38.3V91.93H76.2Z" style="fill:#fff"/><polygon points="265.73 205.65 265.73 54.03 227.82 54.03 227.82 205.65 227.82 243.55 265.73 243.55 341.54 243.55 341.54 205.65 265.73 205.65" style="fill:#fff"/></g></svg>