<?xml version="1.0" encoding="utf-8"?>
<!-- Generator: Adobe Illustrator 23.0.0, SVG Export Plug-In . SVG Version: 6.00 Build 0)  -->
<svg version="1.1" id="Layer_1" xmlns="http://www.w3.org/2000/svg" xmlns:xlink="http://www.w3.org/1999/xlink" x="0px" y="0px"
	 viewBox="0 0 568.2 349.9" style="enable-background:new 0 0 568.2 349.9;" xml:space="preserve">
<style type="text/css">
	.st0{fill:#FFFFFF;}
</style>
<title>Asset 1</title>
<rect x="367.8" y="54" class="st0" width="43.8" height="43.8"/>
<rect x="367.8" y="105.3" class="st0" width="43.8" height="43.8"/>
<rect x="420" y="105.3" class="st0" width="43.8" height="43.8"/>
<rect x="472.2" y="105.3" class="st0" width="43.8" height="43.8"/>
<rect x="524.5" y="105.3" class="st0" width="43.8" height="43.8"/>
<rect x="472.2" y="156.6" class="st0" width="43.8" height="43.8"/>
<rect x="183.3" y="54" class="st0" width="45.7" height="228.7"/>
<path class="st0" d="M0.4,282.7h137.2V54H0.4V282.7z M91.9,237H46.1v-45.7h45.7V237z M91.9,145.5H46.1V99.8h45.7V145.5z"/>
<polygon class="st0" points="320.5,237 320.5,54 274.8,54 274.8,237 274.8,282.7 320.5,282.7 412,282.7 412,237 "/>
</svg>
